<svg xmlns="http://www.w3.org/2000/svg" viewBox="0 0 512 512">
  <defs>
    <linearGradient id="g" x1="96" y1="48" x2="416" y2="464" gradientUnits="userSpaceOnUse">
      <stop stop-color="#f4dc9f"/>
      <stop offset="1" stop-color="#b98a3d"/>
    </linearGradient>
  </defs>
  <rect width="512" height="512" rx="116" fill="#0b0d12"/>
  <path d="M140 110h232c21 0 38 17 38 38v216c0 21-17 38-38 38H140c-21 0-38-17-38-38V148c0-21 17-38 38-38z" fill="#171a22" stroke="#d7b56d" stroke-width="14"/>
  <circle cx="166" cy="184" r="22" fill="url(#g)"/>
  <rect x="210" y="166" width="128" height="36" rx="18" fill="#f5f7fb" opacity=".94"/>
  <circle cx="166" cy="256" r="22" fill="url(#g)"/>
  <rect x="210" y="238" width="162" height="36" rx="18" fill="#f5f7fb" opacity=".94"/>
  <circle cx="166" cy="328" r="22" fill="url(#g)"/>
  <rect x="210" y="310" width="104" height="36" rx="18" fill="#f5f7fb" opacity=".94"/>
</svg>
